Genre: Action | Crime | Thriller
Language:English
IMDb:http://www.imdb.com/title/tt1988591/
Source:UNRATED 2013 720p WEB-DL H264-WEBiOS Thanks
Encoder:Tony


Format : MPEG-4
Format profile : Base Media
Codec ID : isom
File size : 2.49 GiB
Duration : 1h 45mn
Overall bit rate mode : Variable
Overall bit rate : 3 387 Kbps

Video
ID : 1
Format : AVC
Format/Info : Advanced Video Codec
Format profile : High@L5.1
Format settings, CABAC : Yes
Format settings, ReFrames : 3 frames
Codec ID : avc1
Codec ID/Info : Advanced Video Coding
Duration : 1h 45mn
Bit rate : 3 000 Kbps
Maximum bit rate : 22.2 Mbps
Width : 1 280 pixels
Height : 720 pixels
Display aspect ratio : 16:9
Frame rate mode : Constant
Frame rate : 23.976 fps
Color space : YUV
Chroma subsampling : 4:2:0
Bit depth : 8 bits
Scan type : Progressive
Bits/(Pixel*Frame) : 0.136
Stream size : 2.16 GiB (87%)
Writing library : x264


Audio
ID : 2
Format : AAC
Format/Info : Advanced Audio Codec
Format profile : LC
Codec ID : 40
Duration : 1h 45mn
Bit rate mode : Variable
Bit rate : 445 Kbps
Maximum bit rate : 515 Kbps
Channel(s) : 6 channels
Channel positions : Front: L C R, Side: L R, LFE
Sampling rate : 48.0 KHz
Compression mode : Lossy
Stream size : 335 MiB (13%)
 
http://img96.imageshack.us/img96/1584/vlcsnap2012112318h25m21.png
 
http://img706.imageshack.us/img706/1458/vlcsnap2012112318h25m35.png
 
http://img33.imageshack.us/img33/4633/vlcsnap2012112318h25m49.png
 
http://img22.imageshack.us/img22/8438/vlcsnap2012112318h26m11.png

Greets:
CRYS,INSPiRAL,IMAGINE,LKRG,ADTRG,FXG,3Li,FLAWL3SS,CrEwSaDe,TA,iLLUSiON,EMBER,HOPE,GooN,BBnRG,NOGRP,ETRG,BHRG,iLLUMiNATi,MiSTERE.ViSiON,DTRG SAFCuk009,LU,TheFalcon007,MYSTiC,PrisM,Noir,WBZ,LAP,Rx,Kingdom,SAFCuk009+Fabreezy,HDLiTE,TWiZTED,ETRG.ELEKTRI4KA,MAGNAT,CM8
And to all the other p2p grps past and present


Make sure its a real Feel-Free release @ http://extratorrent
Thanks to all who promotes release Feel-Free !!!